<svg width="640" height="920" viewBox="0 0 640 920" fill="none" xmlns="http://www.w3.org/2000/svg">
  <title>Wireframe - claim submission form view</title>
  <desc>Hand-drawn low fidelity wireframe for the first application view with bicycle claim form.</desc>
  <style>
    .bg { fill: #fbfaf4; }
    .ink { stroke: #1f211a; stroke-width: 3.2; stroke-linecap: round; stroke-linejoin: round; fill: none; }
    .thin { stroke: #1f211a; stroke-width: 2.1; stroke-linecap: round; stroke-linejoin: round; fill: none; }
    .dash { stroke: #1f211a; stroke-width: 2.4; stroke-linecap: round; stroke-linejoin: round; stroke-dasharray: 10 9; fill: none; }
    .soft { fill: #f1efe3; stroke: #1f211a; stroke-width: 2.4; stroke-linecap: round; stroke-linejoin: round; }
    .button { fill: #d2ff00; stroke: #1f211a; stroke-width: 2.8; stroke-linecap: round; stroke-linejoin: round; }
    .muted { fill: #e4e0d3; stroke: #1f211a; stroke-width: 2.2; stroke-linecap: round; stroke-linejoin: round; }
    .title { font: 700 30px "Comic Sans MS", "Segoe Print", Arial, sans-serif; fill: #1f211a; }
    .label { font: 600 21px "Comic Sans MS", "Segoe Print", Arial, sans-serif; fill: #1f211a; }
    .small { font: 500 17px "Comic Sans MS", "Segoe Print", Arial, sans-serif; fill: #1f211a; }
    .tiny { font: 500 14px "Comic Sans MS", "Segoe Print", Arial, sans-serif; fill: #1f211a; }
  </style>

  <rect class="bg" width="640" height="920"/>
  <path class="ink" d="M45 38 C185 27, 438 29, 592 39"/>
  <text x="50" y="78" class="title">Formularz zgłoszenia</text>
  <text x="50" y="110" class="small">Pierwszy ekran aplikacji</text>

  <path class="ink" d="M44 145 C202 132, 431 137, 596 146 C607 310, 604 651, 594 872 C433 885, 205 883, 43 871 C32 635, 35 395, 44 145Z"/>

  <path class="soft" d="M74 175 C205 167, 409 170, 546 177 C552 230, 549 282, 543 334 C402 342, 202 339, 76 333 C68 276, 69 223, 74 175Z"/>
  <text x="98" y="212" class="label">Dane roweru</text>
  <path class="thin" d="M100 236 C231 230, 371 232, 522 237"/>
  <text x="102" y="265" class="small">Rodzaj sprzętu: [ Rower v ]</text>
  <path class="thin" d="M100 288 C224 283, 402 285, 521 289"/>
  <text x="102" y="317" class="small">Marka: [________________]</text>

  <path class="soft" d="M74 360 C230 349, 412 353, 546 361 C555 458, 551 562, 542 658 C397 670, 204 667, 77 657 C67 554, 67 456, 74 360Z"/>
  <text x="98" y="397" class="label">Opis problemu</text>
  <text x="100" y="430" class="small">Model: [________________]</text>
  <path class="dash" d="M98 452 C230 447, 403 449, 522 453 C528 515, 526 572, 521 625 C385 634, 225 631, 98 625 C92 568, 92 509, 98 452Z"/>
  <text x="116" y="486" class="small">Co się stało?</text>
  <text x="116" y="515" class="tiny">np. rama pękła podczas jazdy</text>
  <text x="116" y="543" class="tiny">albo rower przewrócił się po upadku</text>

  <path class="soft" d="M74 688 C203 679, 407 682, 546 690 C552 751, 549 804, 542 839 C399 850, 208 848, 77 839 C68 787, 67 739, 74 688Z"/>
  <text x="98" y="724" class="label">Zdjęcia uszkodzenia</text>
  <rect x="100" y="746" width="70" height="58" rx="7" class="muted"/>
  <rect x="185" y="746" width="70" height="58" rx="7" class="muted"/>
  <rect x="270" y="746" width="70" height="58" rx="7" class="muted"/>
  <rect x="355" y="746" width="70" height="58" rx="7" class="muted"/>
  <rect x="440" y="746" width="72" height="58" rx="7" class="muted"/>
  <text x="108" y="820" class="tiny">min. 1, max. 5 zdjęć</text>

  <path class="button" d="M368 838 C429 833, 502 835, 548 840 C554 863, 552 880, 546 894 C494 899, 421 897, 369 893 C363 875, 362 856, 368 838Z"/>
  <text x="405" y="869" class="small">Wyślij</text>
</svg>
